# xmcd
#
# Track frame offsets:
#	150
#	16080
#	30405
#	44967
#	58944
#	72405
#	87323
#	103475
#	120081
#	135318
#	151161
#	165556
#	178334
#	193342
#	208391
#
# Disc length: 2995 seconds
#
# Revision: 1
# Processed by: cddbd v1.5.2PL0 Copyright (c) Steve Scherf et al.
# Submitted via: audiograbber 1.83.01
#
DISCID=d90bb10f
DTITLE=Udo Jürgens and Das DFB-WM-Nationalteam 1978 - Buenos Dias Argentina
DYEAR=1978
DGENRE=Schlager
TTITLE0=Buenos Dias, Argentina (Deutsch)
TTITLE1=Elfmeter
TTITLE2=Wer Hat Das Tor So Klein Gemacht?
TTITLE3=Es Darf Gelacht Werden
TTITLE4=Aber Bitte Mit Sahne (Fußball-Version)
TTITLE5=Wer Spricht Schon Vom Verlierer
TTITLE6=Das Fußball-Ballet
TTITLE7=Das Spiel Ist Aus
TTITLE8=Er Hält Den Ball
TTITLE9=Denk' An Mich, Kleines Mädchen
TTITLE10=Wer Hat Schon Solche Beine?
TTITLE11=Der Teufel Hat Den Schnaps Gemacht
TTITLE12=Ein Fußballstar Kennt Keinen Schmerz
TTITLE13=Der Mann Mit Der Mütze
TTITLE14=Buenos Dias, Argentina (Spanisch)
EXTD=
EXTT0=
EXTT1=
EXTT2=
EXTT3=
EXTT4=
EXTT5=
EXTT6=
EXTT7=
EXTT8=
EXTT9=
EXTT10=
EXTT11=
EXTT12=
EXTT13=
EXTT14=
PLAYORDER=
